<mxfile host="Electron" agent="Mozilla/5.0 (Windows NT 10.0; Win64; x64) AppleWebKit/537.36 (KHTML, like Gecko) draw.io/24.7.5 Chrome/126.0.6478.183 Electron/31.3.0 Safari/537.36" version="24.7.5">
  <diagram name="Page-1" id="e7e014a7-5840-1c2e-5031-d8a46d1fe8dd">
    <mxGraphModel dx="2868" dy="1672" grid="1" gridSize="10" guides="1" tooltips="1" connect="1" arrows="1" fold="1" page="1" pageScale="1" pageWidth="1169" pageHeight="826" background="none" math="0" shadow="0">
      <root>
        <mxCell id="0" />
        <mxCell id="1" parent="0" />
        <mxCell id="2" value="Система" style="swimlane;whiteSpace=wrap" parent="1" vertex="1">
          <mxGeometry x="159" y="128" width="285.5" height="1212" as="geometry" />
        </mxCell>
        <mxCell id="j8wnkU9_bImWfLl1RAMj-47" value="Вывести данные об отделениях" style="html=1;whiteSpace=wrap;" parent="2" vertex="1">
          <mxGeometry x="85" y="122" width="110" height="50" as="geometry" />
        </mxCell>
        <mxCell id="V8BFKy3tvMc_U-J1J4ZH-10" value="Отобразить форму добавления данных о сотруднике" style="html=1;whiteSpace=wrap;movable=1;resizable=1;rotatable=1;deletable=1;editable=1;locked=0;connectable=1;" vertex="1" parent="2">
          <mxGeometry x="70.5" y="402" width="139" height="68" as="geometry" />
        </mxCell>
        <mxCell id="j8wnkU9_bImWfLl1RAMj-57" value="Вывести данные работников отделения и подчинненных ему отделений в алфавитном порядке" style="html=1;whiteSpace=wrap;" parent="2" vertex="1">
          <mxGeometry x="57.75" y="532" width="164.5" height="78" as="geometry" />
        </mxCell>
        <mxCell id="j8wnkU9_bImWfLl1RAMj-74" value="Отобразить данные о выбранном работнике" style="html=1;whiteSpace=wrap;" parent="2" vertex="1">
          <mxGeometry x="57.75" y="802" width="164.5" height="78" as="geometry" />
        </mxCell>
        <mxCell id="V8BFKy3tvMc_U-J1J4ZH-27" value="Сохраниить изменения в БД" style="html=1;whiteSpace=wrap;" vertex="1" parent="2">
          <mxGeometry x="57.75" y="1062" width="164.5" height="78" as="geometry" />
        </mxCell>
        <mxCell id="3" value="Сотрудник" style="swimlane;whiteSpace=wrap;movable=1;resizable=1;rotatable=1;deletable=1;editable=1;locked=0;connectable=1;" parent="1" vertex="1">
          <mxGeometry x="444.5" y="128" width="685.5" height="1212" as="geometry" />
        </mxCell>
        <mxCell id="j8wnkU9_bImWfLl1RAMj-45" value="" style="ellipse;html=1;shape=startState;fillColor=#000000;strokeColor=#ff0000;" parent="3" vertex="1">
          <mxGeometry x="125.5" y="32" width="30" height="30" as="geometry" />
        </mxCell>
        <mxCell id="j8wnkU9_bImWfLl1RAMj-68" style="edgeStyle=orthogonalEdgeStyle;rounded=0;orthogonalLoop=1;jettySize=auto;html=1;exitX=0;exitY=0.5;exitDx=0;exitDy=0;entryX=0.5;entryY=0;entryDx=0;entryDy=0;strokeColor=#ff0000;endArrow=openThin;endFill=0;" parent="3" source="j8wnkU9_bImWfLl1RAMj-59" target="j8wnkU9_bImWfLl1RAMj-64" edge="1">
          <mxGeometry relative="1" as="geometry" />
        </mxCell>
        <mxCell id="V8BFKy3tvMc_U-J1J4ZH-4" value="да" style="edgeLabel;html=1;align=center;verticalAlign=middle;resizable=0;points=[];" vertex="1" connectable="0" parent="j8wnkU9_bImWfLl1RAMj-68">
          <mxGeometry x="-0.3023" y="1" relative="1" as="geometry">
            <mxPoint y="-10" as="offset" />
          </mxGeometry>
        </mxCell>
        <mxCell id="j8wnkU9_bImWfLl1RAMj-69" value="" style="ellipse;html=1;shape=endState;fillColor=#000000;strokeColor=#ff0000;" parent="3" vertex="1">
          <mxGeometry x="365.5" y="722" width="30" height="30" as="geometry" />
        </mxCell>
        <mxCell id="j8wnkU9_bImWfLl1RAMj-72" value="нет" style="edgeStyle=orthogonalEdgeStyle;html=1;align=left;verticalAlign=bottom;endArrow=open;endSize=8;strokeColor=#ff0000;rounded=0;entryX=0.5;entryY=0;entryDx=0;entryDy=0;exitX=1;exitY=0.5;exitDx=0;exitDy=0;" parent="3" source="j8wnkU9_bImWfLl1RAMj-59" target="j8wnkU9_bImWfLl1RAMj-69" edge="1">
          <mxGeometry x="-1" relative="1" as="geometry">
            <mxPoint x="835.5" y="788" as="targetPoint" />
            <mxPoint x="784.5" y="749" as="sourcePoint" />
          </mxGeometry>
        </mxCell>
        <mxCell id="V8BFKy3tvMc_U-J1J4ZH-5" value="Хотите добавить данные о сотруднике?" style="rhombus;whiteSpace=wrap;html=1;fontColor=#000000;fillColor=#ffffc0;strokeColor=#ff0000;movable=1;resizable=1;rotatable=1;deletable=1;editable=1;locked=0;connectable=1;" vertex="1" parent="3">
          <mxGeometry x="215.5" y="212" width="184.5" height="58" as="geometry" />
        </mxCell>
        <mxCell id="V8BFKy3tvMc_U-J1J4ZH-6" value="нет" style="edgeStyle=orthogonalEdgeStyle;html=1;align=left;verticalAlign=bottom;endArrow=open;endSize=8;strokeColor=#ff0000;rounded=0;exitX=1;exitY=0.5;exitDx=0;exitDy=0;entryX=0.505;entryY=0.248;entryDx=0;entryDy=0;entryPerimeter=0;" edge="1" parent="3" source="V8BFKy3tvMc_U-J1J4ZH-5" target="V8BFKy3tvMc_U-J1J4ZH-11">
          <mxGeometry x="-1" relative="1" as="geometry">
            <mxPoint x="394.97" y="322" as="targetPoint" />
            <mxPoint x="359.47" y="303.4842818428185" as="sourcePoint" />
          </mxGeometry>
        </mxCell>
        <mxCell id="V8BFKy3tvMc_U-J1J4ZH-7" value="да" style="edgeStyle=orthogonalEdgeStyle;html=1;align=left;verticalAlign=top;endArrow=open;endSize=8;strokeColor=#ff0000;rounded=0;movable=1;resizable=1;rotatable=1;deletable=1;editable=1;locked=0;connectable=1;exitX=0;exitY=0.5;exitDx=0;exitDy=0;entryX=0.5;entryY=0;entryDx=0;entryDy=0;" edge="1" parent="3" source="V8BFKy3tvMc_U-J1J4ZH-5" target="V8BFKy3tvMc_U-J1J4ZH-8">
          <mxGeometry x="-0.375" y="-29" relative="1" as="geometry">
            <mxPoint x="69.5" y="342" as="targetPoint" />
            <mxPoint as="offset" />
          </mxGeometry>
        </mxCell>
        <mxCell id="V8BFKy3tvMc_U-J1J4ZH-8" value="Выбрать добавление сотрудника" style="html=1;whiteSpace=wrap;movable=1;resizable=1;rotatable=1;deletable=1;editable=1;locked=0;connectable=1;" vertex="1" parent="3">
          <mxGeometry x="125.5" y="302" width="110" height="50" as="geometry" />
        </mxCell>
        <mxCell id="j8wnkU9_bImWfLl1RAMj-62" value="Выбрать отделение" style="html=1;whiteSpace=wrap;movable=1;resizable=1;rotatable=1;deletable=1;editable=1;locked=0;connectable=1;" parent="3" vertex="1">
          <mxGeometry x="415.5" y="392" width="110" height="50" as="geometry" />
        </mxCell>
        <mxCell id="j8wnkU9_bImWfLl1RAMj-59" value="Хотите отредактировать данные о сотруднике" style="rhombus;whiteSpace=wrap;html=1;fontColor=#000000;fillColor=#ffffc0;strokeColor=#ff0000;" parent="3" vertex="1">
          <mxGeometry x="155.5" y="642" width="174.5" height="78" as="geometry" />
        </mxCell>
        <mxCell id="j8wnkU9_bImWfLl1RAMj-64" value="Выбрать работника" style="html=1;whiteSpace=wrap;" parent="3" vertex="1">
          <mxGeometry x="55.5" y="722" width="110" height="50" as="geometry" />
        </mxCell>
        <mxCell id="V8BFKy3tvMc_U-J1J4ZH-11" value="" style="shape=line;html=1;strokeWidth=6;strokeColor=#ff0000;" vertex="1" parent="3">
          <mxGeometry x="365.5" y="332" width="95.5" height="10" as="geometry" />
        </mxCell>
        <mxCell id="V8BFKy3tvMc_U-J1J4ZH-12" value="" style="edgeStyle=orthogonalEdgeStyle;html=1;verticalAlign=bottom;endArrow=open;endSize=8;strokeColor=#ff0000;rounded=0;exitX=0.75;exitY=0.5;exitDx=0;exitDy=0;exitPerimeter=0;entryX=0.5;entryY=0;entryDx=0;entryDy=0;" edge="1" source="V8BFKy3tvMc_U-J1J4ZH-11" parent="3" target="j8wnkU9_bImWfLl1RAMj-62">
          <mxGeometry relative="1" as="geometry">
            <mxPoint x="345.48" y="432" as="targetPoint" />
          </mxGeometry>
        </mxCell>
        <mxCell id="V8BFKy3tvMc_U-J1J4ZH-13" value="" style="ellipse;html=1;shape=endState;fillColor=#000000;strokeColor=#ff0000;movable=1;resizable=1;rotatable=1;deletable=1;editable=1;locked=0;connectable=1;" vertex="1" parent="3">
          <mxGeometry x="340" y="382" width="30" height="30" as="geometry" />
        </mxCell>
        <mxCell id="V8BFKy3tvMc_U-J1J4ZH-14" value="&lt;div&gt;&lt;br&gt;&lt;/div&gt;&lt;div&gt;&lt;br&gt;&lt;/div&gt;" style="edgeStyle=orthogonalEdgeStyle;html=1;align=left;verticalAlign=bottom;endArrow=open;endSize=8;strokeColor=#ff0000;rounded=0;exitX=0.25;exitY=0.5;exitDx=0;exitDy=0;entryX=0.5;entryY=0;entryDx=0;entryDy=0;exitPerimeter=0;" edge="1" parent="3" source="V8BFKy3tvMc_U-J1J4ZH-11" target="V8BFKy3tvMc_U-J1J4ZH-13">
          <mxGeometry x="-1" relative="1" as="geometry">
            <mxPoint x="471" y="242" as="targetPoint" />
            <mxPoint x="440" y="231" as="sourcePoint" />
          </mxGeometry>
        </mxCell>
        <mxCell id="V8BFKy3tvMc_U-J1J4ZH-24" value="Отредактировать данные" style="html=1;whiteSpace=wrap;" vertex="1" parent="3">
          <mxGeometry x="155.5" y="912" width="110" height="50" as="geometry" />
        </mxCell>
        <mxCell id="V8BFKy3tvMc_U-J1J4ZH-26" value="Сохранить изменения" style="html=1;whiteSpace=wrap;" vertex="1" parent="3">
          <mxGeometry x="155.5" y="982" width="110" height="50" as="geometry" />
        </mxCell>
        <mxCell id="V8BFKy3tvMc_U-J1J4ZH-25" value="" style="edgeStyle=orthogonalEdgeStyle;html=1;verticalAlign=bottom;endArrow=open;endSize=8;strokeColor=#ff0000;rounded=0;exitX=0.5;exitY=1;exitDx=0;exitDy=0;entryX=0.5;entryY=0;entryDx=0;entryDy=0;" edge="1" parent="3" source="V8BFKy3tvMc_U-J1J4ZH-24" target="V8BFKy3tvMc_U-J1J4ZH-26">
          <mxGeometry relative="1" as="geometry">
            <mxPoint x="215.5" y="1012" as="targetPoint" />
            <mxPoint x="-141.5" y="850" as="sourcePoint" />
          </mxGeometry>
        </mxCell>
        <mxCell id="V8BFKy3tvMc_U-J1J4ZH-29" value="" style="ellipse;html=1;shape=endState;fillColor=#000000;strokeColor=#ff0000;" vertex="1" parent="3">
          <mxGeometry x="205.5" y="1162" width="30" height="30" as="geometry" />
        </mxCell>
        <mxCell id="j8wnkU9_bImWfLl1RAMj-46" value="" style="edgeStyle=orthogonalEdgeStyle;html=1;verticalAlign=bottom;endArrow=open;endSize=8;strokeColor=#ff0000;rounded=0;entryX=0.5;entryY=0;entryDx=0;entryDy=0;exitX=0.5;exitY=1;exitDx=0;exitDy=0;" parent="1" source="j8wnkU9_bImWfLl1RAMj-45" target="j8wnkU9_bImWfLl1RAMj-47" edge="1">
          <mxGeometry relative="1" as="geometry">
            <mxPoint x="585" y="250" as="targetPoint" />
          </mxGeometry>
        </mxCell>
        <mxCell id="j8wnkU9_bImWfLl1RAMj-51" value="" style="edgeStyle=orthogonalEdgeStyle;html=1;verticalAlign=bottom;endArrow=open;endSize=8;strokeColor=#ff0000;rounded=0;exitX=0.5;exitY=1;exitDx=0;exitDy=0;entryX=0.5;entryY=0;entryDx=0;entryDy=0;" parent="1" source="j8wnkU9_bImWfLl1RAMj-47" target="V8BFKy3tvMc_U-J1J4ZH-5" edge="1">
          <mxGeometry relative="1" as="geometry">
            <mxPoint x="782.25" y="320" as="targetPoint" />
            <mxPoint x="304.5" y="370" as="sourcePoint" />
          </mxGeometry>
        </mxCell>
        <mxCell id="V8BFKy3tvMc_U-J1J4ZH-9" value="" style="edgeStyle=orthogonalEdgeStyle;html=1;align=left;verticalAlign=top;endArrow=open;endSize=8;strokeColor=#ff0000;rounded=0;movable=1;resizable=1;rotatable=1;deletable=1;editable=1;locked=0;connectable=1;exitX=0.5;exitY=1;exitDx=0;exitDy=0;" edge="1" parent="1" source="V8BFKy3tvMc_U-J1J4ZH-8" target="V8BFKy3tvMc_U-J1J4ZH-10">
          <mxGeometry x="-1" relative="1" as="geometry">
            <mxPoint x="290" y="550" as="targetPoint" />
            <mxPoint as="offset" />
            <mxPoint x="469.5" y="570" as="sourcePoint" />
          </mxGeometry>
        </mxCell>
        <mxCell id="j8wnkU9_bImWfLl1RAMj-58" value="" style="edgeStyle=orthogonalEdgeStyle;html=1;verticalAlign=bottom;endArrow=open;endSize=8;strokeColor=#ff0000;rounded=0;exitX=0.5;exitY=1;exitDx=0;exitDy=0;entryX=0.5;entryY=0;entryDx=0;entryDy=0;" parent="1" source="j8wnkU9_bImWfLl1RAMj-57" target="j8wnkU9_bImWfLl1RAMj-59" edge="1">
          <mxGeometry relative="1" as="geometry">
            <mxPoint x="810" y="688" as="targetPoint" />
            <mxPoint x="314" y="668" as="sourcePoint" />
          </mxGeometry>
        </mxCell>
        <mxCell id="j8wnkU9_bImWfLl1RAMj-63" value="" style="edgeStyle=orthogonalEdgeStyle;html=1;align=left;verticalAlign=top;endArrow=open;endSize=8;strokeColor=#ff0000;rounded=0;entryX=0.5;entryY=0;entryDx=0;entryDy=0;exitX=0.5;exitY=1;exitDx=0;exitDy=0;" parent="1" source="j8wnkU9_bImWfLl1RAMj-62" target="j8wnkU9_bImWfLl1RAMj-57" edge="1">
          <mxGeometry x="-1" relative="1" as="geometry">
            <mxPoint x="308.75" y="553" as="targetPoint" />
            <mxPoint x="396.75" y="480" as="sourcePoint" />
            <Array as="points">
              <mxPoint x="915" y="620" />
              <mxPoint x="299" y="620" />
            </Array>
          </mxGeometry>
        </mxCell>
        <mxCell id="j8wnkU9_bImWfLl1RAMj-75" value="" style="edgeStyle=orthogonalEdgeStyle;html=1;verticalAlign=bottom;endArrow=open;endSize=8;strokeColor=#ff0000;rounded=0;exitX=0.5;exitY=1;exitDx=0;exitDy=0;entryX=0.5;entryY=0;entryDx=0;entryDy=0;" parent="1" source="j8wnkU9_bImWfLl1RAMj-64" target="j8wnkU9_bImWfLl1RAMj-74" edge="1">
          <mxGeometry relative="1" as="geometry">
            <mxPoint x="554.6600000000001" y="910" as="targetPoint" />
            <mxPoint x="554.6600000000001" y="850" as="sourcePoint" />
          </mxGeometry>
        </mxCell>
        <mxCell id="V8BFKy3tvMc_U-J1J4ZH-23" value="" style="edgeStyle=orthogonalEdgeStyle;html=1;verticalAlign=bottom;endArrow=open;endSize=8;strokeColor=#ff0000;rounded=0;exitX=0.464;exitY=0.998;exitDx=0;exitDy=0;exitPerimeter=0;entryX=0.5;entryY=0;entryDx=0;entryDy=0;" edge="1" parent="1" source="j8wnkU9_bImWfLl1RAMj-74" target="V8BFKy3tvMc_U-J1J4ZH-24">
          <mxGeometry relative="1" as="geometry">
            <mxPoint x="670" y="1070" as="targetPoint" />
            <mxPoint x="290" y="1030" as="sourcePoint" />
          </mxGeometry>
        </mxCell>
        <mxCell id="V8BFKy3tvMc_U-J1J4ZH-28" value="" style="edgeStyle=orthogonalEdgeStyle;html=1;verticalAlign=bottom;endArrow=open;endSize=8;strokeColor=#ff0000;rounded=0;exitX=0.5;exitY=1;exitDx=0;exitDy=0;entryX=0.5;entryY=0;entryDx=0;entryDy=0;" edge="1" parent="1" source="V8BFKy3tvMc_U-J1J4ZH-26" target="V8BFKy3tvMc_U-J1J4ZH-27">
          <mxGeometry relative="1" as="geometry">
            <mxPoint x="665" y="1090" as="targetPoint" />
            <mxPoint x="303" y="1018" as="sourcePoint" />
          </mxGeometry>
        </mxCell>
        <mxCell id="V8BFKy3tvMc_U-J1J4ZH-30" value="" style="edgeStyle=orthogonalEdgeStyle;html=1;align=left;verticalAlign=bottom;endArrow=open;endSize=8;strokeColor=#ff0000;rounded=0;entryX=0.5;entryY=0;entryDx=0;entryDy=0;exitX=0.5;exitY=1;exitDx=0;exitDy=0;" edge="1" parent="1" target="V8BFKy3tvMc_U-J1J4ZH-29" source="V8BFKy3tvMc_U-J1J4ZH-27">
          <mxGeometry x="-1" relative="1" as="geometry">
            <mxPoint x="1131" y="1405.97" as="targetPoint" />
            <mxPoint x="290" y="1280" as="sourcePoint" />
          </mxGeometry>
        </mxCell>
      </root>
    </mxGraphModel>
  </diagram>
</mxfile>
